# xmcd CD database file
#
# Track frame offsets:
#	150
#	17414
#	33295
#	48768
#	68203
#	82211
#	98137
#	117354
#	137682
#	151255
#	167939
#	180473
#
# Disc length: 2579 seconds
#
# Revision: 4
# Processed by: cddbd v1.5.2PL0 Copyright (c) Steve Scherf et al.
# Submitted via: CDex 2.21
#
DISCID=930a110c
DTITLE=Brandi Carlile - The Firewatcher's Daughter
DYEAR=2015
DGENRE=Country
TTITLE0=Wherever is Your Heart
TTITLE1=The Eye
TTITLE2=The Things I regret
TTITLE3=Mainstream Kid
TTITLE4=Beginning To Feel The Years
TTITLE5=Wilder (We're Chained)
TTITLE6=Blood Muscle Skin and Bone
TTITLE7=I Belong To You
TTITLE8=Alibi
TTITLE9=The Stranger At My Door
TTITLE10=Heroes And Songs
TTITLE11=Murder In The City
EXTD=YEAR: 2015
EXTT0=
EXTT1=
EXTT2=
EXTT3=
EXTT4=
EXTT5=
EXTT6=
EXTT7=
EXTT8=
EXTT9=
EXTT10=
EXTT11=
PLAYORDER=
